<svg width="341" height="227" viewBox="0 0 341 227" fill="none" xmlns="http://www.w3.org/2000/svg">
<path d="M292.447 8.52002H325.146V39.3263H340.636V67.551H325.146V100.25H292.447V8.52002ZM250.061 107.307H325.319V169.091H292.275V132.778H230.465L250.061 107.307Z" fill="white"/>
<path d="M158.334 109.888H97.5817V133.122H64.194V109.888H0V84.2449H158.334V109.888ZM7.22828 117.461H40.7881V144.481H152.999V169.263H7.22828V117.461ZM95.3444 8.52002C95.0002 15.9778 93.6234 22.9192 91.214 29.3443C101.311 29.2296 110.891 30.9506 119.955 34.5074C129.133 37.9494 136.878 43.2846 143.189 50.5129C149.499 57.7412 153.515 66.6331 155.236 77.1887H122.537C119.783 69.5014 114.735 63.4779 107.392 59.118C100.048 54.6433 91.5582 52.406 81.9205 52.406C79.5111 52.406 77.6753 52.4633 76.4132 52.5781C68.3818 60.7242 58.2852 66.9773 46.1233 71.3372C34.0761 75.5824 20.5949 77.7623 5.67937 77.8771V51.7176C22.2011 50.9144 35.5104 46.7266 45.607 39.1542C55.7036 31.4669 61.3257 21.2556 62.4729 8.52002H95.3444Z" fill="white"/>
<path d="M264.239 7.97517L219.948 65.5553L263.916 69.6097L157.617 218.373L215.666 90.854L176.289 87.2228L223.654 4.23263L264.239 7.97517Z" fill="#19D67D"/>
</svg>
